<?xml version="1.0" encoding="iso-8859-1"?>
<!-- Uploaded to: SVG Repo, www.svgrepo.com, Generator: SVG Repo Mixer Tools -->
<svg height="800px" width="800px" version="1.1" id="Layer_1" xmlns="http://www.w3.org/2000/svg" xmlns:xlink="http://www.w3.org/1999/xlink" 
	 viewBox="0 0 503.467 503.467" xml:space="preserve">
<g transform="translate(1 1)">
	<path style="fill:#ECF4F7;" d="M498.2,429.933v34.133c0,18.773-15.36,34.133-34.133,34.133h-8.533
		c-9.387,0-17.067-8.533-25.6-17.067c-8.533,8.533-16.213,17.067-25.6,17.067h-17.067c-9.387,0-17.067-8.533-25.6-17.067
		c-8.533,8.533-16.213,17.067-25.6,17.067h-8.533c-18.773,0-34.133-15.36-34.133-34.133v-34.133c0-17.067,8.533-17.067,8.533-34.133
		h187.733C489.667,412.867,498.2,412.867,498.2,429.933z M498.2,156.867v68.267c0,17.067-8.533,17.067-8.533,34.133H301.933
		c0-17.067-8.533-17.067-8.533-34.133v-68.267c0-25.6,17.067-42.667,34.133-51.2L361.667,88.6V54.467h17.067h34.133h17.067V88.6
		l34.133,17.067C481.133,114.2,498.2,131.267,498.2,156.867z"/>
	<path style="fill:#50DD8E;" d="M301.933,395.8h187.733V259.267H301.933V395.8z M412.867,54.467h-34.133h-17.067h-8.533
		c-5.12,0-8.533-4.267-8.533-8.533V11.8c0-4.267,3.413-8.533,8.533-8.533h85.333c5.12,0,8.533,4.267,8.533,8.533v34.133
		c0,4.267-3.413,8.533-8.533,8.533h-8.533H412.867z"/>
	<path style="fill:#FFE079;" d="M50.2,151.747L50.2,151.747l4.267,5.12L71.533,139.8l12.8,12.8l0.853-0.853
		c3.413-16.213,2.56-37.547,2.56-37.547v-0.853c0-7.68-4.267-69.12-68.267-93.013C36.547,41.667,45.08,65.56,49.347,83.48
		c-4.267-17.92-12.8-41.813-29.867-63.147c0,0,3.413,26.453,3.413,54.613c0,13.653-0.853,28.16-3.413,39.253
		c0,0-3.413,14.507-11.093,29.867l-0.853,0.853l11.947,11.947L36.547,139.8L50.2,151.747L50.2,151.747z"/>
	<path style="fill:#FFD0A1;" d="M276.333,139.8l17.067,17.067v68.267c0,17.067,8.533,17.067,8.533,34.133V395.8H3.267v-256
		l5.12,5.12l11.947,11.947L37.4,139.8l12.8,12.8l4.267,4.267L71.533,139.8l12.8,12.8l4.267,4.267l17.067-17.067l8.533,8.533
		l8.533,8.533L139.8,139.8l17.067,17.067l17.067-17.067L191,156.867l17.067-17.067l17.067,17.067L242.2,139.8l17.067,17.067
		L276.333,139.8z M327.533,498.2H37.4c-18.773,0-34.133-15.36-34.133-34.133V395.8h298.667c0,17.067-8.533,17.067-8.533,34.133
		v34.133C293.4,482.84,308.76,498.2,327.533,498.2z"/>
	<path style="fill:#FF7474;" d="M122.733,156.867l-8.533-8.533l8.533-8.533V45.933c0-4.267,4.267-8.533,8.533-8.533H242.2v102.4
		l-17.067,17.067L208.067,139.8L191,156.867L173.933,139.8l-17.067,17.067L139.8,139.8L122.733,156.867z M276.333,45.933V139.8
		l-17.067,17.067L242.2,139.8V37.4h25.6C272.92,37.4,276.333,41.667,276.333,45.933z"/>
</g>
<path style="fill:#51565F;" d="M465.067,503.467h-8.533c-10.24,0-17.92-7.68-25.6-15.36c-7.68,7.68-15.36,15.36-25.6,15.36h-17.067
	c-10.24,0-17.92-7.68-25.6-15.36c-7.68,7.68-15.36,15.36-25.6,15.36h-8.533c-21.333,0-38.4-17.067-38.4-38.4v-34.133
	c0-9.387,2.56-14.507,5.12-18.773c1.707-4.267,3.413-7.68,3.413-15.36V260.267c0-7.68-1.707-11.093-3.413-15.36
	c-2.56-4.267-5.12-9.387-5.12-18.773v-68.267c0-23.04,13.653-43.52,36.693-54.613L358.4,87.04V55.467
	c0,2.56-1.707,4.267-4.267,4.267c-6.827,0-12.8-5.973-12.8-12.8V12.8c0-6.827,5.973-12.8,12.8-12.8h85.333
	c6.827,0,12.8,5.973,12.8,12.8v34.133c0,6.827-5.973,12.8-12.8,12.8c-2.56,0-4.267-1.707-4.267-4.267
	c0-2.56,1.707-4.267,4.267-4.267c2.56,0,4.267-1.707,4.267-4.267V12.8c0-2.56-1.707-4.267-4.267-4.267h-85.333
	c-2.56,0-4.267,1.707-4.267,4.267v34.133c0,2.56,1.707,4.267,4.267,4.267s4.267,1.707,4.267,4.267c0-2.56,1.707-4.267,4.267-4.267
	h12.8V38.4c0-2.56,1.707-4.267,4.267-4.267c2.56,0,4.267,1.707,4.267,4.267v12.8h25.6V38.4c0-2.56,1.707-4.267,4.267-4.267
	s4.267,1.707,4.267,4.267v12.8h12.8c2.56,0,4.267,1.707,4.267,4.267V87.04l31.573,16.213c23.04,11.093,36.693,31.573,36.693,54.613
	v68.267c0,9.387-2.56,14.507-5.12,18.773c-1.707,4.267-3.413,7.68-3.413,15.36V396.8c0,7.68,1.707,11.093,3.413,15.36
	c2.56,4.267,5.12,9.387,5.12,18.773v34.133C503.467,486.4,486.4,503.467,465.067,503.467z M430.933,477.867
	c0.853,0,2.56,0,3.413,0.853l1.707,1.707c7.68,7.68,13.653,13.653,20.48,13.653h8.533c16.213,0,29.867-13.653,29.867-29.867V430.08
	c0-7.68-1.707-11.093-3.413-15.36c-1.707-3.413-4.267-7.68-4.267-14.507H337.067c-2.56,0-4.267-1.707-4.267-4.267
	s1.707-4.267,4.267-4.267H486.4V260.267c0-9.387,2.56-14.507,5.12-18.773c1.707-4.267,3.413-7.68,3.413-15.36v-68.267
	c0-28.16-22.187-42.667-31.573-47.787l-34.133-17.067c-1.707-0.853-2.56-2.56-2.56-3.413V59.733h-59.733V89.6
	c0,1.707-0.853,3.413-2.56,3.413L330.24,110.08c-9.387,5.12-31.573,18.773-31.573,47.787v68.267c0,7.68,1.707,11.093,3.413,15.36
	c1.707,3.413,4.267,7.68,4.267,14.507H455.68c2.56,0,4.267,1.707,4.267,4.267c0,2.56-1.707,4.267-4.267,4.267H306.347V396.8
	c0,9.387-2.56,14.507-5.12,18.773c-1.707,4.267-3.413,7.68-3.413,15.36v34.133c0,16.213,13.653,29.867,29.867,29.867h8.533
	c6.827,0,12.8-5.973,20.48-13.653l1.707-1.707c1.707-1.707,4.267-1.707,5.973,0l1.707,1.707c7.68,7.68,13.653,13.653,20.48,13.653
	h17.067c6.827,0,12.8-5.973,20.48-13.653l1.707-1.707C428.373,477.867,430.08,477.867,430.933,477.867z M268.8,503.467H38.4
	c-21.333,0-38.4-17.067-38.4-38.4V140.8c0-1.707,0.853-3.413,2.56-4.267c1.707-0.853,3.413,0,4.267,0.853L20.48,151.04
	l13.653-13.653c1.707-1.707,4.267-1.707,5.973,0L53.76,151.04l13.653-13.653c1.707-1.707,4.267-1.707,5.973,0L87.04,151.04
	l13.653-13.653c1.707-1.707,4.267-1.707,5.973,0l13.653,13.653l13.653-13.653c1.707-1.707,4.267-1.707,5.973,0l13.653,13.653
	l13.653-13.653c1.707-1.707,4.267-1.707,5.973,0l13.653,13.653l13.653-13.653c1.707-1.707,4.267-1.707,5.973,0l13.653,13.653
	l13.653-13.653c1.707-1.707,4.267-1.707,5.973,0l17.067,17.067c1.707,1.707,1.707,4.267,0,5.973s-4.267,1.707-5.973,0
	l-13.653-13.653l-13.653,13.653c-1.707,1.707-4.267,1.707-5.973,0l-13.653-13.653l-13.653,13.653c-1.707,1.707-4.267,1.707-5.973,0
	l-13.653-13.653l-13.653,13.653c-1.707,1.707-4.267,1.707-5.973,0l-13.653-13.653l-13.653,13.653c-1.707,1.707-4.267,1.707-5.973,0
	l-13.653-13.653l-13.653,13.653c-1.707,1.707-4.267,1.707-5.973,0l-13.653-13.653l-13.653,13.653c-1.707,1.707-4.267,1.707-5.973,0
	l-13.653-13.653l-13.653,13.653c-1.707,1.707-4.267,1.707-5.973,0l-9.387-9.387v241.493H268.8c2.56,0,4.267,1.707,4.267,4.267
	s-1.707,4.267-4.267,4.267H8.533v64c0,16.213,13.653,29.867,29.867,29.867h230.4c2.56,0,4.267,1.707,4.267,4.267
	C273.066,501.76,271.36,503.467,268.8,503.467z M439.467,349.867h-85.333c-2.56,0-4.267-1.707-4.267-4.267
	c0-2.56,1.707-4.267,4.267-4.267h85.333c2.56,0,4.267,1.707,4.267,4.267C443.733,348.16,442.027,349.867,439.467,349.867z
	 M422.4,315.733h-68.267c-2.56,0-4.267-1.707-4.267-4.267c0-2.56,1.707-4.267,4.267-4.267H422.4c2.56,0,4.267,1.707,4.267,4.267
	C426.667,314.027,424.96,315.733,422.4,315.733z M243.2,119.467c-2.56,0-4.267-1.707-4.267-4.267V42.667H132.267
	c-2.56,0-4.267,1.707-4.267,4.267V115.2c0,2.56-1.707,4.267-4.267,4.267c-2.56,0-4.267-1.707-4.267-4.267V46.933
	c0-6.827,5.973-12.8,12.8-12.8H268.8c6.827,0,12.8,5.973,12.8,12.8v59.733c0,2.56-1.707,4.267-4.267,4.267s-4.267-1.707-4.267-4.267
	V46.933c0-2.56-1.707-4.267-4.267-4.267h-21.333V115.2C247.467,117.76,245.76,119.467,243.2,119.467z M21.333,119.467H20.48
	c-2.56-0.853-3.413-2.56-3.413-5.12c7.68-29.867,0.853-81.92,0-90.453l-7.68-7.68c-1.707-1.707-1.707-4.267,0-5.973
	s4.267-1.707,5.973,0l7.68,7.68c69.12,26.453,69.973,96.427,69.973,97.28c0,2.56-1.707,4.267-4.267,4.267l0,0
	c-2.56,0-4.267-1.707-4.267-4.267s-0.853-56.32-51.2-83.627c25.6,40.107,25.6,81.92,25.6,83.627c0,2.56-1.707,4.267-4.267,4.267l0,0
	c-2.56,0-4.267-1.707-4.267-4.267c0-0.853,0-40.107-23.893-77.653c1.707,20.48,4.267,55.467-1.707,78.507
	C24.747,117.76,23.04,119.467,21.333,119.467z"/>
</svg>