<?xml version="1.0" encoding="utf-8"?>
<!-- Uploaded to: SVG Repo, www.svgrepo.com, Generator: SVG Repo Mixer Tools -->
<svg width="800px" height="800px" viewBox="0 0 1024 1024" class="icon"  version="1.1" xmlns="http://www.w3.org/2000/svg"><path d="M507.9 998l184.2-531.8H323.6z" fill="#E2B97F" /><path d="M507.9 1009c-4.7 0-8.9-3-10.4-7.4L313.2 469.8c-1.2-3.4-0.6-7.1 1.4-10 2.1-2.9 5.4-4.6 9-4.6h368.5c3.6 0 6.9 1.7 9 4.6 2.1 2.9 2.6 6.6 1.4 10l-184.3 531.8c-1.5 4.5-5.6 7.4-10.3 7.4zM339.1 477.2l168.8 487.2 168.8-487.2H339.1z" fill="#1C1C1C" /><path d="M695.8 321.4h-53.7c29.5 0 53.7-24.2 53.7-53.7S671.6 214 642.1 214c47.1-69.2-72.8-192.3-72.8-192.3s-7.4 70-61.4 92.1c-39.4 16.1-51.4 71.5-55 100.3h-74.3c-29.5 0-53.7 24.2-53.7 53.7s24.2 53.7 53.7 53.7h-56.4c-39.8 0-72.3 32.5-72.3 72.3s32.5 72.3 72.3 72.3h373.6c39.8 0 72.3-32.5 72.3-72.3s-32.5-72.4-72.3-72.4z" fill="#F27596" /><path d="M695.8 477.1H322.2c-45.9 0-83.3-37.4-83.3-83.3s37.4-83.3 83.3-83.3h7.8c-10-11.4-16.1-26.4-16.1-42.7 0-35.7 29-64.7 64.7-64.7h64.8c5.5-33.6 20.2-83 60.3-99.4 47.1-19.3 54.5-82.4 54.6-83.1 0.5-4.2 3.3-7.8 7.4-9.2 4-1.4 8.5-0.3 11.5 2.7 1.3 1.3 31.1 32.1 55.6 72.2 14.6 23.9 24.3 46.2 28.6 66.3 4.3 19.8 3.5 37.5-2.3 52.8 27.5 7.5 47.8 32.6 47.8 62.5 0 16.4-6.1 31.3-16.1 42.7h5.1c45.9 0 83.3 37.4 83.3 83.3s-37.4 83.2-83.4 83.2zM322.2 332.4c-33.8 0-61.3 27.5-61.3 61.3s27.5 61.3 61.3 61.3h373.6c33.8 0 61.3-27.5 61.3-61.3s-27.5-61.3-61.3-61.3h-53.7c-6.1 0-11-4.9-11-11s4.9-11 11-11c23.6 0 42.7-19.2 42.7-42.7S665.7 225 642.1 225c-4.1 0-7.8-2.3-9.7-5.9s-1.7-8 0.6-11.3c21-30.9 1.2-77-19.1-110.2-13-21.3-27.8-40-38.4-52.5-1.6 5.6-3.8 12-6.6 18.6-12.4 29.2-32.1 50.1-56.9 60.2-11.7 4.8-39.7 23.2-48.2 91.4-0.7 5.5-5.4 9.6-10.9 9.6h-74.3c-23.6 0-42.7 19.2-42.7 42.7s19.2 42.7 42.7 42.7c6.1 0 11 4.9 11 11s-4.9 11-11 11h-56.4z" fill="#E01042" /><path d="M507.9 654.5c-4.1 0-8.1-2.3-9.9-6.3-2.6-5.5-0.3-12 5.2-14.7l147.1-70.1c5.5-2.6 12-0.3 14.7 5.2s0.3 12-5.2 14.7l-147.1 70.1c-1.6 0.7-3.2 1.1-4.8 1.1zM507.9 746c-4.1 0-8.1-2.3-9.9-6.3-2.6-5.5-0.3-12 5.2-14.7l107.1-51c5.5-2.6 12-0.3 14.7 5.2 2.6 5.5 0.3 12-5.2 14.7l-107.1 51c-1.6 0.7-3.2 1.1-4.8 1.1z" fill="#1C1C1C" /></svg>