<?xml version="1.0" encoding="utf-8"?>
<!-- Uploaded to: SVG Repo, www.svgrepo.com, Generator: SVG Repo Mixer Tools -->
<svg width="800px" height="800px" viewBox="0 0 1024 1024" class="icon"  version="1.1" xmlns="http://www.w3.org/2000/svg"><path d="M405.333333 390.4l-59.733333 59.733333 392.533333 392.533334c17.066667 17.066667 42.666667 17.066667 59.733334 0 17.066667-17.066667 17.066667-42.666667 0-59.733334L405.333333 390.4z" fill="#0288D1" /><path d="M339.2 565.333333l121.6-121.6L164.266667 149.333333l-12.8 10.666667c-59.733333 59.733333-59.733333 157.866667 0 217.6l187.733333 187.733333z" fill="#0288D1" /><path d="M663.466667 462.933333l-59.733334-59.733333-381.866666 379.733333c-17.066667 17.066667-17.066667 42.666667 0 59.733334 17.066667 17.066667 42.666667 17.066667 59.733333 0l381.866667-379.733334z" fill="#03A9F4" /><path d="M602.124904 221.824979a170.666667 213.333333 45.001 1 0 241.354902 241.363328 170.666667 213.333333 45.001 1 0-241.354902-241.363328Z" fill="#03A9F4" /></svg>